# xmcd
#
# Track frame offsets:
#	150
#	14797
#	32179
#	48376
#	68098
#	80805
#	94927
#	112421
#	133026
#	148188
#	163275
#	184617
#	200794
#	213991
#	232603
#	250107
#
# Disc length: 3599 seconds
#
# Revision: 0
# Processed by: cddbd v1.5.2PL0 Copyright (c) Steve Scherf et al.
# Submitted via: dBpowerAMP V4.0
#
DISCID=f40e0d10
DTITLE=Alan Jackson - Who I Am
DYEAR=1900
DGENRE=Country
TTITLE0=01.Summertime Blues
TTITLE1=02.Livin´On Love
TTITLE2=03.Hole In The Wall
TTITLE3=04.Gone Country
TTITLE4=05.Who I Am
TTITLE5=06.You Can´t Give Up On Love
TTITLE6=07.I Don´t Even Know Your Name
TTITLE7=08.Song For The Life
TTITLE8=09.Thank God For The Radio
TTITLE9=10.All American Country Boy
TTITLE10=11.Job Description
TTITLE11=12.If I had You
TTITLE12=13.Let´s Get back To Me And You
TTITLE13=14.Chattahoochee(Extented Remix)
TTITLE14=15.Trying Not To Love You
TTITLE15=16.Murder On Music Row(With George Strait)
EXTD=
EXTT0=
EXTT1=
EXTT2=
EXTT3=
EXTT4=
EXTT5=
EXTT6=
EXTT7=
EXTT8=
EXTT9=
EXTT10=
EXTT11=
EXTT12=
EXTT13=
EXTT14=
EXTT15=
PLAYORDER=
